<svg width="26.666016" height="33.783691" viewBox="0 0 26.666 33.7837" fill="none" xmlns="http://www.w3.org/2000/svg" xmlns:xlink="http://www.w3.org/1999/xlink">
  <desc>
    Created with Pixso.
  </desc>
  <defs/>
  <path id="Union" d="M13.333 0C12.0918 0 11.0859 1.00586 11.0859 2.24658L11.0859 5.07617L10.8359 5.07617C5.96094 6.41943 2.4834 10.7188 2.18896 15.7671L1.75781 23.1606C1.5376 23.2598 1.33984 23.375 1.18457 23.5068C0.352539 24.2144 -0.188477 25.2129 0.0610352 26.2114C0.260742 27.0103 1.0874 27.2378 1.47607 27.2515L1.52002 27.2358L1.5166 27.2935L25.2314 27.2935L25.2305 27.2495C25.6328 27.2217 26.4121 26.9839 26.605 26.2114C26.8545 25.2129 26.314 24.2144 25.4814 23.5068C25.3809 23.4214 25.2622 23.3428 25.1309 23.271L24.9697 16.8257C24.8306 11.2471 20.9858 6.45117 15.5796 5.09668L15.5796 2.24658C15.5796 1.00586 14.5737 0 13.333 0ZM13.4575 33.7837C11.3374 33.7837 9.59131 32.1816 9.36377 30.1221L17.5513 30.1221C17.3237 32.1816 15.5776 33.7837 13.4575 33.7837Z" clip-rule="evenodd" fill="#2C3338" fill-opacity="1.000000" fill-rule="evenodd"/>
</svg>
