<svg width="36.220215" height="29.801270" viewBox="0 0 36.2202 29.8013" fill="none" xmlns="http://www.w3.org/2000/svg" xmlns:xlink="http://www.w3.org/1999/xlink">
  <desc>
    Created with Pixso.
  </desc>
  <defs/>
  <path id="Vector 93" d="M23.42 8.24C23.27 9.58 22.35 13.44 18.64 13.78C14.93 14.13 13.21 10 12.94 7.28C12.68 4.57 13.67 2.27 15.24 1.58C16.49 1.03 17.7 0.89 18.14 0.89C24.61 1.16 23.57 6.9 23.42 8.24ZM18.14 17.03C19.67 17 20.8 16.13 21.17 15.7C22.69 15.95 25.99 16.9 26.94 18.64C27.89 20.38 28.28 24.21 28.35 25.91C27.93 26.85 25.4 28.77 18.64 28.89C11.88 29.01 8.86 26.95 8.2 25.91C7.89 24.16 7.68 20.26 9.27 18.64C10.86 17.02 13.91 16 15.24 15.7C15.57 16.15 16.61 17.06 18.14 17.03Z" stroke="#FFFFFF" stroke-opacity="1.000000" stroke-width="1.800000" stroke-linejoin="round"/>
  <path id="Vector 94" d="M33.15 7.45C33.08 8.04 32.68 9.74 31.05 9.89C29.42 10.04 28.66 8.23 28.54 7.03C28.43 5.84 28.86 4.83 29.55 4.52C30.1 4.28 30.63 4.22 30.83 4.22C33.67 4.34 33.22 6.86 33.15 7.45ZM30.83 11.32C31.5 11.31 31.99 10.92 32.16 10.73C32.83 10.84 34.28 11.26 34.69 12.03C35.11 12.79 35.28 14.48 35.32 15.22C35.13 15.64 34.02 16.48 31.05 16.53C28.08 16.59 26.75 15.68 26.46 15.22C26.33 14.45 26.23 12.74 26.93 12.03C27.63 11.31 28.97 10.87 29.55 10.73C29.7 10.93 30.16 11.33 30.83 11.32Z" stroke="#FFFFFF" stroke-opacity="1.000000" stroke-width="1.800000" stroke-linejoin="round"/>
  <path id="Vector 95" d="M7.68 7.45C7.61 8.04 7.21 9.74 5.58 9.89C3.95 10.04 3.19 8.23 3.07 7.03C2.96 5.84 3.39 4.83 4.08 4.52C4.63 4.28 5.16 4.22 5.36 4.22C8.2 4.34 7.74 6.86 7.68 7.45ZM5.36 11.32C6.03 11.31 6.52 10.92 6.69 10.73C7.36 10.84 8.81 11.26 9.22 12.03C9.64 12.79 9.81 14.48 9.84 15.22C9.66 15.64 8.55 16.48 5.58 16.53C2.61 16.59 1.28 15.68 0.99 15.22C0.86 14.45 0.76 12.74 1.46 12.03C2.16 11.31 3.5 10.87 4.08 10.73C4.23 10.93 4.69 11.33 5.36 11.32Z" stroke="#FFFFFF" stroke-opacity="1.000000" stroke-width="1.800000" stroke-linejoin="round"/>
</svg>
