<svg width="40.000000" height="23.000000" viewBox="0 0 40 23" fill="none" xmlns="http://www.w3.org/2000/svg" xmlns:xlink="http://www.w3.org/1999/xlink">
  <desc>
    Created with Pixso.
  </desc>
  <defs>
    <clipPath id="clip19_256">
      <rect id="1 52896" rx="0.000000" width="39.000000" height="22.000000" transform="translate(0.500000 0.500000)" fill="white" fill-opacity="0"/>
    </clipPath>
  </defs>
  <rect id="1 52896" rx="0.000000" width="39.000000" height="22.000000" transform="translate(0.500000 0.500000)" fill="#FFFFFF" fill-opacity="0"/>
  <g clip-path="url(#clip19_256)">
    <path id="Vector" d="M12.39 20.08L22.12 20.13L22.12 11.91C19.85 11.96 16.2 11.93 13.76 11.87C13.68 11.87 13.58 11.87 13.5 11.86C13.18 11.84 13.22 11.8 13.2 11.78C13.1 11.79 12.99 11.79 12.89 11.78L12.61 11.68C12.86 11.45 13.25 11.2 13.56 10.98C13.88 10.76 14.17 10.56 14.5 10.33L18.31 7.74C19.39 7.01 19.1 6.94 20.79 7.06L20.83 8.98L22.16 8.97L22.14 1.06L20.8 1.06L20.79 5.59C20.33 5.67 19.08 5.52 18.77 5.66C18.64 5.72 18.32 5.97 18.16 6.07L10.22 11.49C9.87 11.73 9.96 11.75 9.43 11.74C9.08 11.74 8.73 11.74 8.39 11.74L2.85 11.73C2.3 11.73 1.35 11.68 0.83 11.74L0.85 16L1.43 16.34C2.82 16.37 0.97 16.25 2.33 16.33C3.83 16.41 4.89 16.43 5.8 17.23C6.39 17.75 6.86 18.36 7.1 19.16C7.17 19.42 7.17 19.82 7.28 20.05C7.48 20.13 11.99 20.16 12.39 20.08Z" fill="#3A1E07" fill-opacity="1.000000" fill-rule="evenodd"/>
    <path id="Vector" d="M31.55 6.87C31.55 6.55 31.55 6.23 31.55 5.91C31.56 5.33 31.46 5.13 31.72 5.13L33.77 5.14C34 5.59 34.54 6.29 34.86 6.76C35.37 7.5 38.04 11.33 38.07 11.58C36.45 11.61 33.26 11.67 31.57 11.62C31.51 10.49 31.55 7.98 31.55 6.87ZM38.73 15.22L39.95 15.22C40 14.82 40.01 12.73 39.96 12.34C39.93 12.12 39.09 10.84 38.9 10.53C38.19 9.33 37.4 8.17 36.64 7.05C36.26 6.48 34.47 4.08 34.03 3.86C33.77 3.73 28.97 3.82 28.24 3.81C27.59 2.97 27.47 2.51 26.49 1.91C25.99 1.6 24.43 1.02 23.68 1.08C23.49 1.48 23.43 18.43 23.53 20.15L25.95 20.13C26.12 18.71 26.35 18.26 27.13 17.46C27.68 16.89 28.75 16.37 29.89 16.37C31.51 16.38 32.88 17.4 33.43 18.64C33.8 19.47 33.69 19.76 33.83 20.12C34.14 20.2 39.19 20.15 39.97 20.15L39.95 17.87L38.73 17.85L38.73 15.22Z" fill="#3A1E07" fill-opacity="1.000000" fill-rule="evenodd"/>
    <path id="Vector" d="M29.45 18.79C31.08 18.18 32.23 20.86 30.27 21.52C29.4 21.81 28.66 21.1 28.45 20.52C28.12 19.65 28.85 19.01 29.45 18.79ZM32.73 20.6C33.04 18.85 31.75 17.6 30.34 17.34C28.57 17.02 27.26 18.31 27 19.66C26.65 21.44 27.95 22.73 29.41 22.95C31.09 23.2 32.49 21.98 32.73 20.6Z" fill="#3A1E07" fill-opacity="1.000000" fill-rule="evenodd"/>
    <path id="Vector" d="M2.93 18.79C3.38 18.64 3.77 18.69 4.1 18.93C4.32 19.1 4.68 19.39 4.75 19.72C4.83 20.11 4.8 20.63 4.58 20.91C3.94 21.75 2.92 21.64 2.53 21.31C1.92 20.79 1.63 20.1 2.09 19.36C2.3 19.03 2.49 18.93 2.93 18.79ZM6.23 20.5C6.51 18.82 5.23 17.54 3.69 17.34C1.99 17.12 0.66 18.3 0.49 19.75C0.28 21.47 1.45 22.77 2.97 22.97C4.7 23.19 6 21.91 6.23 20.5Z" fill="#3A1E07" fill-opacity="1.000000" fill-rule="evenodd"/>
  </g>
</svg>
