<svg width="27.997070" height="28.000000" viewBox="0 0 27.9971 28" fill="none" xmlns="http://www.w3.org/2000/svg" xmlns:xlink="http://www.w3.org/1999/xlink">
  <defs/>
  <path id="Vector" d="M8.98 7.86C9.42 7.7 10.24 7.74 10.48 8.02C10.67 8.23 10.93 8.93 11.06 9.26C11.61 10.61 12.05 11.07 11.52 11.81C10.71 12.94 10.27 12.55 11.29 14.01C12.19 15.3 13.84 16.7 15.36 17.18C15.91 17.36 16.15 16.93 16.44 16.56C16.56 16.41 17.12 15.66 17.23 15.6C17.56 15.4 20.65 16.71 20.75 17.25C20.96 18.45 19.97 19.87 18.34 20.2C17.17 20.43 16.19 20.11 15.25 19.77C12.1 18.61 9.12 15.88 7.73 12.91C6.75 10.8 7.51 8.39 8.98 7.86ZM0.11 15.16C0.22 16.25 0.42 17.24 0.73 18.22C1.83 21.68 2.2 19.14 0.9 23.79C-0.28 27.99 -0.65 28.42 1.94 27.73C2.91 27.47 3.87 27.23 4.85 26.97C8.3 26.04 7.05 26.17 9.06 26.93C15.57 29.36 22.46 26.66 25.82 21.34C26.79 19.79 27.49 18.08 27.82 15.97C29.18 7.29 22.25 0.19 14.46 0C12.15 -0.06 10.19 0.38 8.28 1.22C5.96 2.24 3.59 4.25 2.29 6.35C0.69 8.94 -0.24 11.9 0.11 15.16Z" fill="#3A1E07" fill-opacity="1.000000" fill-rule="evenodd"/>
</svg>
